<svg xmlns="http://www.w3.org/2000/svg" width="15" height="15" viewBox="0 0 15 15">
    <path id="Shape" d="M13.726,14a.275.275,0,0,1-.2-.082L9.439,9.824A5.91,5.91,0,0,1,5.765,11.1,5.667,5.667,0,0,1,0,5.55,5.667,5.667,0,0,1,5.765,0,5.667,5.667,0,0,1,11.53,5.55,5.412,5.412,0,0,1,9.844,9.468l4.08,4.084a.259.259,0,0,1-.008.374A.281.281,0,0,1,13.726,14ZM5.765.528A5.127,5.127,0,0,0,.549,5.55a5.128,5.128,0,0,0,5.215,5.023A5.128,5.128,0,0,0,10.981,5.55,5.128,5.128,0,0,0,5.765.528Z" transform="translate(0.5 0.5)" fill="none" stroke="#242424" stroke-miterlimit="10" stroke-width="1"/>
  </svg>  