<svg xmlns="http://www.w3.org/2000/svg" xmlns:xlink="http://www.w3.org/1999/xlink" width="38" height="38" viewBox="0 0 38 38">
  <defs>
    <clipPath id="clip-path">
      <circle id="Mask" cx="19" cy="19" r="19" transform="translate(6 7)" fill="#7a40f2"/>
    </clipPath>
    <clipPath id="clip-path-2">
      <path id="Clip_17" data-name="Clip 17" d="M14.605,8.858c.138,5.385-2.411,10.532-6.838,10.645S.142,15.019,0,9.635,2.841.116,7.268,0s7.2,3.47,7.337,8.855" transform="translate(0.074 0.124)" fill="none"/>
    </clipPath>
  </defs>
  <g id="Group" transform="translate(-6 -7)" clip-path="url(#clip-path)">
    <g id="Group-2" data-name="Group" transform="translate(3 11)">
      <path id="Fill_4" data-name="Fill 4" d="M16.13,1.086c-1.027,1.946-3.388,2.663-5.454,3.42S6.339,6.625,6.18,8.82c-.1,1.38.705,2.714.568,4.091-.283,2.843-3.994,3.8-5.714,6.079a5.867,5.867,0,0,0-.472,5.856,8.5,8.5,0,0,0,4.421,4.1A12.628,12.628,0,0,0,17.06,27.408a16.926,16.926,0,0,0,6.493-10.591,25.935,25.935,0,0,0-.967-12.562A6.5,6.5,0,0,0,20.1.364c-1.358-.8-3.546-.245-3.793,1.311l-.18-.589" transform="translate(0 4.924)" fill="#0a0f21"/>
      <path id="Fill_5" data-name="Fill 5" d="M0,9.925C0,4.443,4.073,0,9.1,0s9.1,4.443,9.1,9.925S14.121,19.85,9.1,19.85,0,15.407,0,9.925" transform="translate(15.234)" fill="#0a0f21"/>
      <path id="Fill_6" data-name="Fill 6" d="M2.515,1.893S.557.344.582,0L0,.234,1.787,2.456l.728-.563" transform="translate(15.234 6.226)" fill="#ff05db"/>
      <path id="Fill_7" data-name="Fill 7" d="M0,7.6s7,3.612,10.84,3.524c3.947-.091,12.52-4.06,12.52-4.06S21.682-1.649,12.565.278C12.565.278,4.055-1.846,0,7.6Z" transform="translate(13.102 28.285)" fill="#57c6ff"/>
      <path id="Fill_8" data-name="Fill 8" d="M11.964,0,4.028,1.347l-.073,9.695s.456,2.511,4.559,2.582c3.873.066,4.131-2.7,4.131-2.7L11.964,0,0,8.793" transform="translate(17.368 18.935)" fill="#fbded4"/>
      <path id="Fill_9" data-name="Fill 9" d="M.123,5.509h0L.165,0,.123,5.509" transform="translate(21.231 20.282)" fill="#0a0f21"/>
      <path id="Fill_10" data-name="Fill 10" d="M.407,6.868C.148,6.868,0,6.856,0,6.856L.042,1.347,7.978,0l.2,3.173a9.842,9.842,0,0,1-7.768,3.7" transform="translate(21.354 18.935)" fill="#f6d3c8"/>
      <path id="Fill_11" data-name="Fill 11" d="M3.7,1.546A1.7,1.7,0,0,1,1.688,3.1C.948,2.88,0,2.317,0,1.546S1.08,0,1.851,0A1.637,1.637,0,0,1,3.7,1.546" transform="translate(31.121 12.955)" fill="#fbded4"/>
      <path id="Fill_12" data-name="Fill 12" d="M0,1A1.545,1.545,0,0,1,.084.507a.885.885,0,0,1,.3-.452A.31.31,0,0,1,.556,0a.4.4,0,0,1,.1.017A.647.647,0,0,1,.734.062a.673.673,0,0,1,.1.114A.282.282,0,0,1,.885.342,1.123,1.123,0,0,1,.759.835C.74.671.73.5.7.364A.135.135,0,0,0,.673.3L.606.248C.563.221.555.231.51.255a1.127,1.127,0,0,0-.257.33Q.135.788,0,1" transform="translate(33.428 14.072)" fill="#eea08e"/>
      <path id="Fill_13" data-name="Fill 13" d="M0,1.546A1.7,1.7,0,0,0,2.015,3.1C2.755,2.88,3.7,2.317,3.7,1.546S2.623,0,1.851,0A1.637,1.637,0,0,0,0,1.546" transform="translate(16.399 12.955)" fill="#fbded4"/>
      <path id="Fill_14" data-name="Fill 14" d="M.885,1Q.751.788.633.585A1.128,1.128,0,0,0,.375.255C.331.231.322.221.28.248L.212.3A.135.135,0,0,0,.185.364C.155.5.146.671.127.835A1.119,1.119,0,0,1,0,.342.286.286,0,0,1,.046.176a.673.673,0,0,1,.1-.114A.647.647,0,0,1,.23.017.405.405,0,0,1,.33,0,.311.311,0,0,1,.5.055.885.885,0,0,1,.8.507,1.537,1.537,0,0,1,.885,1" transform="translate(16.911 14.072)" fill="#eea08e"/>
      <path id="Fill_15" data-name="Fill 15" d="M14.605,8.858c.138,5.385-2.411,10.532-6.838,10.645S.142,15.019,0,9.635,2.841.116,7.268,0s7.2,3.47,7.337,8.855" transform="translate(18.363 3.635)" fill="#fbded4"/>
      <g id="Group_19" data-name="Group 19" transform="translate(18.289 3.511)">
        <path id="Clip_17-2" data-name="Clip 17" d="M14.605,8.858c.138,5.385-2.411,10.532-6.838,10.645S.142,15.019,0,9.635,2.841.116,7.268,0s7.2,3.47,7.337,8.855" transform="translate(0.074 0.124)" fill="none"/>
      </g>
      <path id="Fill_20" data-name="Fill 20" d="M.8.55c-.007.3-.192.535-.413.53S-.007.829,0,.53.193-.005.413,0,.807.252.8.55" transform="translate(22.332 12.216)" fill="#172133"/>
      <path id="Fill_21" data-name="Fill 21" d="M.8.55c-.007.3-.192.535-.413.53S-.007.829,0,.53.193-.005.413,0,.807.252.8.55" transform="translate(28.092 12.216)" fill="#172133"/>
      <path id="Fill_22" data-name="Fill 22" d="M0,0A5.625,5.625,0,0,0,.881.844a1.663,1.663,0,0,0,1,.365A1.962,1.962,0,0,0,2.9.849,11.642,11.642,0,0,0,3.878.095a3.114,3.114,0,0,1-.739,1.056,2.363,2.363,0,0,1-.56.385,1.8,1.8,0,0,1-.695.164,1.647,1.647,0,0,1-.7-.161A1.979,1.979,0,0,1,.629,1.13,2.5,2.5,0,0,1,0,0" transform="translate(23.943 15.586)" fill="#292929"/>
      <path id="Fill_23" data-name="Fill 23" d="M.015,1.9a1.925,1.925,0,0,1,.39-.422,2.971,2.971,0,0,1,.456-.318l-.009.435a1.27,1.27,0,0,1-.319-.36,1.785,1.785,0,0,1-.177-.4A2.009,2.009,0,0,1,.269,0C.424.235.557.461.7.669A2.919,2.919,0,0,0,.918.956a1.246,1.246,0,0,0,.231.208l.319.206L1.14,1.6a2.962,2.962,0,0,1-.482.277,1.924,1.924,0,0,1-.548.172A.1.1,0,0,1,0,1.966L.015,1.9" transform="translate(25.351 12.674)" fill="#d1746f"/>
      <path id="Fill_24" data-name="Fill 24" d="M11.734.867c-1.6-1.3-4.524-.75-4.524-.75a8.1,8.1,0,0,0-6.3,4.257,9.925,9.925,0,0,0-.277,7.559c4.275-1.548,6.957-6.285,8.09-8.719a11.761,11.761,0,0,0,6.456,8.107S16.431,4.686,11.734.867" transform="translate(17.796 1.635)" fill="#0a0f21"/>
    </g>
  </g>
</svg>
